<svg version="1" xmlns="http://www.w3.org/2000/svg" width="60" height="60" viewBox="0 0 225 225" preserveAspectRatio="xMidYMid meet"><metadata>
</metadata><g transform="translate(0.000000,225.000000) scale(0.050000,-0.050000)" fill="#6a6a6a" stroke="none"><path d="M640 4025c-141-71-204-264-131-401 15-30 330-355 700-724 369-368 671-679 671-690 0-11-302-322-671-690-370-369-685-694-700-724-88-166 19-393 201-427 157-30 145-40 1115 928l915 913-895 897c-1005 1007-1014 1014-1205 918zM1949 4022c-136-61-200-217-151-365 15-47 226-271 712-757l690-690-699-700c-610-612-700-710-712-776-29-161 38-291 180-345 186-71 143-104 1156 907l915 914-895 897c-1008 1010-1000 1004-1196 915z"/></g></svg>