<svg version="1" xmlns="http://www.w3.org/2000/svg" width="32" height="32" viewBox="0 0 120 120" preserveAspectRatio="xMidYMid meet"><metadata>
Created by potrace 1.10, written by Peter Selinger 2001-2011
</metadata><g transform="translate(0.000000,120.000000) scale(0.050000,-0.050000)" fill="#707070" stroke="none"><path d="M1615 2245c-23-25-35-71-35-133 0-119-16-149-174-326-143-161-177-179-277-146-465 154-532-321-100-716 345-315 757-263 673 85-60 243-59 249 80 408 129 149 137 153 316 171 154 15 188 53 178 196-22 304-501 638-661 461zM727 780c-78-118-25-135 102-32 52 41 56 52 33 80-42 51-77 38-135-48z"/></g></svg>