<svg version="1" xmlns="http://www.w3.org/2000/svg" width="32" height="32" viewBox="0 0 120 120" preserveAspectRatio="xMidYMid meet"><metadata>
</metadata><g transform="translate(0.000000,120.000000) scale(0.100000,-0.100000)" fill="#707070" stroke="none"><path d="M800 1132c-27-28-30-36-28-85 2-52 0-57-49-113-28-33-64-71-80-87l-30-27-62 16c-79 20-125 12-162-27-41-44-46-87-19-162 82-225 360-380 470-262 30 32 38 107 16 159-27 65-22 82 50 162l66 74 56 0c104 0 146 50 121 143-31 115-151 220-267 234-47 5-53 3-82-25zm154-26c89-42 164-136 172-215 5-59-11-73-96-80-79-8-66 2-177-125-47-52-54-90-28-136 24-41 19-114-9-147-22-25-30-28-84-27-45 1-72 8-112 30-82 44-165 126-200 198-43 87-48 126-21 170 28 45 71 55 149 33 36-10 63-12 78-7 12 5 56 48 98 96 74 85 76 87 76 140 0 94 53 118 154 70zM394 452c-6-4-27-31-47-61-27-41-34-58-25-68 8-10 17-9 48 8 21 12 51 32 66 45l29 23-30 30c-17 17-35 27-41 23zm26-48c0-8-32-33-43-34-4 0-3 9 3 20 10 18 40 29 40 14z"/></g></svg>