<svg version="1" xmlns="http://www.w3.org/2000/svg" width="180" height="300" viewBox="0 0 300 300"><g transform="translate(0.000000,300.000000) scale(0.050000,-0.050000)" fill="#999999" stroke="none"><path d="M1170 5972c-475-115-720-567-521-959 278-549 1199-539 1472 15 262 532-310 1100-951 944zM5440 5828c-289-125-300-451-20-595 380-195 774 253 466 531-102 93-311 123-446 64zM3916 5669c-97-52-96-45-96-1238l0-1131-136 0c-150 0-214-30-246-116-49-127 64-224 261-224l121 0 0-1300 0-1299 58-66 59-65 476-7 477-6 0 181 0 182-335 0-335 0 0 1190 0 1190 335 0 335 0 0 170 0 169-330 6-330 5 0 1020 0 1020 330 5 330 6 0 169 0 170-460-1c-367 0-471-7-514-30zM1211 4349c-42-43-40-50 31-149l62-86-24-183c-23-177-23-186 26-301 65-154 83-156 144-19 56 128 60 173 27 369l-22 137 62 80c109 137 73 183-144 183-92 0-139-9-162-31zM564 4280c-197-58-295-114-398-228-162-177-166-203-166-959l0-657 177-233c97-128 214-282 260-343l83-110 0-851c0-635 6-857 24-875 34-34 1638-34 1672 0 18 18 24 240 24 874l0 850 260 342 260 342 0 659c0 823-20 900-278 1066-137 88-447 182-497 150-29-17-151-294-428-962-83-201-110-248-150-257-87-22-70-52-397 722-245 582-206 540-446 470zM5475 3452c-189-68-261-165-250-337 25-387 671-429 766-50 62 249-249 482-516 387zM5440 709c-289-130-300-452-20-596 323-165 693 128 540 428-85 165-341 249-520 168z"/></g></svg>