<svg version="1" xmlns="http://www.w3.org/2000/svg" width="180" height="300" viewBox="0 0 300 300"><g transform="translate(0.000000,300.000000) scale(0.050000,-0.050000)" fill="#999999" stroke="none"><path d="M813 5963c-57-63-50-5026 7-5083 62-62 5106-54 5152 9 45 61 42 5002-3 5067l-31 44-2546 0c-2441 0-2547-2-2579-37zm1601-474c346-169 434-710 166-1016-357-406-950-132-950 439 0 479 393 768 784 577zm2039-404c13-30 195-442 407-915 707-1581 800-1794 800-1822 0-24-337-28-2240-28-2040 0-2240 3-2240 32 0 27 570 787 805 1073l78 95 236-180c130-99 244-180 254-180 9 1 143 248 297 550 154 302 287 547 295 545 8-3 160-121 337-263 234-188 326-251 338-232 9 14 145 330 303 703 305 721 297 705 330 622zM80 5146c-82-29-80 29-80-2565 0-2223 3-2497 31-2537l31-44 2546 0c2441 0 2547 2 2579 37 27 30 33 82 33 290l0 253-2300 0c-2273 0-2300 0-2340 40-40 40-40 67-40 2290l0 2250-215-2c-118 0-228-6-245-12z"/></g></svg>