<svg version="1" xmlns="http://www.w3.org/2000/svg" width="180" height="300" viewBox="0 0 300 300"><g transform="translate(0.000000,300.000000) scale(0.050000,-0.050000)" fill="#999999" stroke="none"><path d="M2275 5988c-8-8-15-90-15-181l0-167 102 0c1208 0 2471-862 2989-2039 152-345 289-900 289-1170l0-68 115 9c208 18 245 27 245 64 0 110-89 609-141 793-396 1413-1562 2469-2989 2710-263 45-574 70-595 49zM2298 4988l33-178 198-25c1056-131 1916-871 2190-1885 35-130 101-502 101-575 0-27 153-34 281-13l72 12-27 222c-173 1427-1278 2490-2708 2605l-172 14 32-177zM650 4881c-241-58-535-456-612-827-168-819 232-1663 1292-2724 944-946 2063-1468 2760-1290 391 100 770 436 770 681 0 137-43 194-495 643-590 587-614 591-1032 174l-238-238-183 103c-683 388-1112 819-1499 1506l-112 199 230 235c423 432 417 466-214 1090-410 406-507 482-597 465-5-1-37-9-70-17zM2442 4265c1-30 13-113 25-183l23-129 171-42c695-174 1196-729 1307-1449l24-152 79-14c278-49 287-40 241 244-107 662-493 1211-1072 1527-219 119-349 161-755 244-38 8-45 2-43-46zM2436 3405c-28-74-57-150-64-168-12-26 11-40 122-74 336-102 594-347 682-647 38-132 33-129 259-142l144-9-11 53c-126 577-600 1069-1080 1122-2 0-25-61-52-135z"/></g></svg>