<svg version="1" xmlns="http://www.w3.org/2000/svg" width="200" height="300" viewBox="0 0 300 300"><g transform="translate(0.000000,300.000000) scale(0.050000,-0.050000)" fill="#999999" stroke="none"><path d="M0 4050l0-1950 2110 0 2110 0 0 298c0 177-8 301-20 305-11 4-28 214-40 497-11 270-25 537-32 595l-11 105-498 0-499 0 0 160 0 160 695 0 695 0 108-141 107-140 102 140c118 160 105 156 391 108l196-32 13-361c7-198 13-471 13-607l0-247-100 0-100 0 0-120c0-67-9-120-20-120-12 0-20-113-20-300l0-300 400 0 400 0 0 1950 0 1950-3000 0-3000 0 0-1950zm4930 1543c314-146 457-566 305-897-259-567-992-446-1093 180-80 498 374 910 788 717zM4640 2270l0-170 70 0 70 0 0 170 0 170-70 0-70 0 0-170zM766 1519c-639-252-603-1273 52-1489 560-184 1065 530 788 1114-160 339-522 500-840 375zM2818 1533c-668-248-651-1299 25-1504 686-208 1167 815 629 1338-172 167-457 240-654 166zM4795 1530c-343-126-554-540-467-915 192-826 1207-804 1353 30 97 560-404 1062-886 885z"/></g></svg>