<svg version="1" xmlns="http://www.w3.org/2000/svg" width="200" height="300" viewBox="0 0 300 300"><g transform="translate(0.000000,300.000000) scale(0.050000,-0.050000)" fill="#999999" stroke="none"><path d="M230 5977c-79-44-136-109-182-207l-48-100 1-2670c0-2965-9-2753 125-2897 102-108-29-103 2454-103 2612 0 2385-15 2518 170 83 116 914 4184 894 4377-24 221-142 317-381 309l-161-6 0-140 0-140 100-5c234-12 231 76 28-887-88-422-188-894-220-1048-32-154-82-392-111-530-29-137-61-259-70-269-9-10-17 850-17 1912 0 2010 0 2000-85 2122-100 144 73 135-2499 134-1646 0-2317-7-2346-22zm4669-336c29-54 29-5228 0-5282-25-48-4567-63-4615-15-35 35-35 5277 0 5312 48 48 4590 33 4615-15zM786 4800c-64-26-69-82-62-766 5-521 11-618 36-634 47-30 1806-26 1836 4 51 51 32 1348-20 1384-50 35-1705 46-1790 12zM3213 4794c-28-20-34-50-29-155l6-129 610 0 610 0 6 129c5 105-1 135-29 155-50 37-1124 37-1174 0zM3213 3674c-28-20-34-50-29-155l6-129 610 0 610 0 6 129c5 105-1 135-29 155-50 37-1124 37-1174 0zM791 2536c-35-51-40-149-11-225l19-51 1801 0 1801 0 19 51c29 76 24 174-11 225l-31 44-1778 0-1778 0-31-44zM781 1401c-26-48-27-143-1-210l19-51 1801 0 1801 0 19 51c26 67 25 162-1 210-32 61-3606 61-3638 0z"/></g></svg>