<svg version="1" xmlns="http://www.w3.org/2000/svg" width="200" height="300" viewBox="0 0 300 300"><g transform="translate(0.000000,300.000000) scale(0.050000,-0.050000)" fill="#999999" stroke="none"><path d="M1524 4482l-1526-1514 43-54c150-192 337-150 652 148 226 214 1297 1236 1920 1833 232 223 427 405 432 405 10 0 1173-1168 1870-1880 582-593 760-696 963-557 156 108 216 28-784 1047-497 506-1160 1183-1474 1503l-570 584-1526-1515zM4700 4915l-1-405 286-273c157-150 288-270 292-267 5 6 7 575 4 1235l-1 115-290 0-290 0 0-405zM2788 4637c-131-125-558-528-948-897-391-368-780-736-865-818l-155-149 0-1346c0-1320 1-1348 40-1387 39-39 67-40 820-40l780 0 0 759 0 759 48 56 49 56 387 0c578 0 536 71 536-902l0-729 769 5 770 6 45 46 46 45 5 1335 6 1334-1048 1047-1048 1047-237-227z"/></g></svg>