<svg version="1" xmlns="http://www.w3.org/2000/svg" width="200" height="300" viewBox="0 0 300 300"><g transform="translate(0.000000,300.000000) scale(0.050000,-0.050000)" fill="#999999" stroke="none"><path d="M814 5960c-120-95-116-2-110-2380 7-2603-38-2342 406-2366 595-33 1179-302 1559-719 72-79 131-151 131-159 0-9 9-16 20-16 14 0 19 724 15 2235l-5 2235-68 130c-307 588-805 941-1475 1048-279 44-409 42-473-8zM4670 5961c-653-118-1136-469-1433-1041l-67-130-5-2235c-4-1511 1-2235 15-2235 11 0 20 7 20 16 0 8 59 80 131 159 380 417 964 686 1559 719 260 14 319 38 371 152 59 130 59 4357 1 4486-73 159-191 181-592 109zM94 4972c-97-90-96-57-90-2506 6-2303 6-2303 48-2360 88-118 117-121 391-51 467 119 602 135 1127 134 497 0 472 3 900-100 58-14 57-11-40 90-356 372-777 553-1393 599-327 24-472 114-585 362-88 194-92 277-92 2125l0 1755-107 0c-85 0-118-10-159-48zM5640 3265c0-1848-4-1931-92-2125-113-248-258-338-585-362-616-46-1037-227-1393-599-97-101-98-104-40-90 428 103 403 100 900 100 525 1 660-15 1127-134 274-70 303-67 391 51l42 57 6 2313c4 2067 2 2323-27 2397-40 108-102 147-228 147l-101 0 0-1755z"/></g></svg>