<svg version="1" xmlns="http://www.w3.org/2000/svg" width="200" height="300" viewBox="0 0 300 300"><g transform="translate(0.000000,300.000000) scale(0.050000,-0.050000)" fill="#999999" stroke="none"><path d="M1873 5965c-275-91-473-435-473-819l0-106-619 0c-835 0-781 37-780-534l0-376 394-410c217-225 494-513 617-638l222-228 43 43c39 39 64 43 292 43 304 0 344-22 364-195l13-105 1054 0 1054 0 13 105c20 173 60 195 364 195 228 0 253-4 292-43l43-43 222 228c123 125 400 413 617 638l394 410 0 374c1 574 56 536-778 536l-621 0 0 106c0 389-199 729-480 820-154 50-2097 49-2247-1zm2229-390c129-88 198-236 198-430l0-105-1300 0-1300 0 0 105c0 194 69 342 198 430l68 45 1034 0 1034 0 68-45zM165 1920c6-1716-3-1610 137-1770 142-161-78-149 2698-149 2791 0 2557-14 2707 161 137 160 134 117 128 1796l-5 1507-525-547-525-548 0-246c0-346-17-364-350-364-331 0-370 36-370 339l0 161-1060 0-1060 0 0-161c0-303-39-339-370-339-333 0-350 18-350 364l0 246-411 430c-227 237-465 484-531 550l-119 120 6-1550z"/></g></svg>