<svg xmlns="http://www.w3.org/2000/svg" version="1" width="300" height="300" viewBox="0 0 300 300" preserveAspectRatio="xMidYMid meet"><g transform="translate(0.000000,300.000000) scale(0.100000,-0.100000)" fill="#bababa" stroke="none"><path d="M1878 2869c-43-25-643-824-872-1162-128-189-128-222 3-414 210-308 754-1045 831-1125 39-41 52-48 84-48 98 0 179 119 161 236-8 57-47 115-413 619-168 231-321 442-340 468-30 42-33 51-23 71 7 12 155 218 328 457 415 570 440 607 448 663 13 86-27 187-89 225-36 22-90 27-118 10z"/></g></svg>