<svg xmlns="http://www.w3.org/2000/svg" version="1" width="300" height="300" viewBox="0 0 300 300" preserveAspectRatio="xMidYMid meet"><g transform="translate(0.000000,300.000000) scale(0.050000,-0.050000)" fill="#bababa" stroke="none"><path d="M1700 5187c-87-45-124-80-175-167l-66-109 6-1932 5-1932 60-87c212-306 645-249 778 102 30 80 33 253 28 1970l-6 1881-60 98c-134 216-358 285-570 176zM3953 5212c-102-38-182-117-243-240l-50-100 0-1871 0-1871 48-100c174-368 646-359 808 16 18 42 24 517 24 1957l0 1902-54 99c-105 192-335 282-533 208z"/></g></svg>