<svg xmlns="http://www.w3.org/2000/svg" version="1" width="300" height="300" viewBox="0 0 300 300" preserveAspectRatio="xMidYMid meet"><g transform="translate(0.000000,300.000000) scale(0.050000,-0.050000)" fill="#999999" stroke="none"><path d="M950 5538c-204-107-296-286-249-482 32-133 47-150 1319-1513 270-289 493-534 497-545 4-11-100-133-230-272-571-608-1418-1523-1483-1602-265-323-4-790 382-683 93 26 154 86 835 819 291 314 746 805 1012 1090 265 286 506 548 535 583l53 64-266 287c-2185 2368-2186 2370-2405 2254zM2610 5527c-174-92-265-304-212-497 25-94 82-161 720-849 260-280 614-662 787-849l315-340-66-71c-37-39-301-323-586-630-285-308-606-654-714-770-419-450-484-549-467-717 21-210 155-354 350-377 155-19 225 35 695 537 229 246 539 577 688 736 634 678 1170 1265 1175 1287 3 13-208 253-468 533-260 281-690 744-955 1030-985 1064-1031 1099-1262 977z"/></g></svg>