<svg version="1" xmlns="http://www.w3.org/2000/svg" width="60" height="60" viewBox="0 0 225 225" preserveAspectRatio="xMidYMid meet"><metadata>
</metadata><g transform="translate(0.000000,225.000000) scale(0.050000,-0.050000)" fill="#868686" stroke="none"><path d="M2034 4038c-1453-174-2100-1963-1095-3025 1089-1152 3016-454 3115 1129 70 1117-902 2029-2020 1896zm699-412c1029-373 1317-1636 547-2406-1032-1032-2768-77-2451 1349 185 833 1108 1345 1904 1057zM1901 3151l-128-129 182-196c100-108 273-286 384-396l201-199-385-386-384-385 139-141 140-141 426 436c235 240 469 479 520 531l93 96-519 519c-286 286-525 520-530 520-6 0-69-58-139-129z"/></g></svg>