<svg xmlns="http://www.w3.org/2000/svg" version="1" width="900" height="900" viewBox="0 0 900 900" preserveAspectRatio="xMidYMid meet"><g transform="translate(0.000000,900.000000) scale(0.100000,-0.100000)" fill="#bababa" stroke="none"><path d="M837 7863c-4-3-7-331-7-729 0-649 2-722 16-728 24-9 7277-7 7292 2 10 7 12 160 10 733l-3 724-3651 3c-2008 1-3654-1-3657-5zM835 5258c-3-7-4-337-3-733l3-720 3655 0 3655 0 0 730 0 730-3653 3c-2917 2-3654 0-3657-10zM842 2572c-10-7-12-160-10-733l3-724 3655 0 3655 0 3 724c2 573 0 726-10 733-7 4-1649 8-3648 8-1999 0-3641-4-3648-8z"/></g></svg>