<svg xmlns="http://www.w3.org/2000/svg" version="1" width="174" height="300" viewBox="0 0 174 300" preserveAspectRatio="xMidYMid meet"><g transform="translate(0.000000,300.000000) scale(0.050000,-0.050000)" fill="#bababa" stroke="none"><path d="M290 5952c-241-114-349-370-248-592 30-68 310-360 1169-1220 621-622 1129-1139 1129-1150 0-11-516-537-1147-1170-985-988-1150-1162-1170-1232-106-376 293-709 647-540 156 75 2758 2689 2788 2802 79 294 131 229-1394 1752-1543 1541-1476 1491-1774 1350z"/></g></svg>