<svg xmlns="http://www.w3.org/2000/svg" version="1" width="300" height="300" viewBox="0 0 300 300" preserveAspectRatio="xMidYMid meet"><g transform="translate(0.000000,300.000000) scale(0.100000,-0.100000)" fill="#bababa" stroke="none"><path d="M815 2671c-91-24-171-84-206-152-18-37-19-70-19-1018 0-619 4-989 10-1006 17-44 98-122 153-146 44-21 68-24 157-24 78 1 115 5 145 18 66 29 113 67 145 117l30 47 0 987c0 955-1 988-19 1025-26 49-91 107-149 132-52 23-196 34-247 20zM2000 2671c-90-20-175-81-211-152-18-37-19-70-19-1025l0-987 30-47c32-50 79-88 145-117 30-13 67-17 145-18 89 0 113 3 157 24 55 24 136 102 153 146 6 17 10 387 10 1006 0 948-1 981-19 1018-25 49-91 107-149 133-52 22-182 33-242 19z"/></g></svg>