<svg xmlns="http://www.w3.org/2000/svg" version="1" width="900" height="900" viewBox="0 0 900 900" preserveAspectRatio="xMidYMid meet"><g transform="translate(0.000000,900.000000) scale(0.100000,-0.100000)" fill="#bababa" stroke="none"><path d="M1885 7208c-3-7-4-1235-3-2728l3-2715 1020-3c561-1 1030 0 1043 3l22 5 0 2719c0 2470-1 2719-16 2725-9 3-477 6-1040 6-811 0-1026-3-1029-12zM5023 7213c-10-4-13-558-13-2724l0-2719 23-5c12-3 481-4 1042-3l1020 3 0 2725 0 2725-1030 2c-566 1-1036-1-1042-4z"/></g></svg>