<svg xmlns="http://www.w3.org/2000/svg" version="1" width="300" height="300" viewBox="0 0 300 300" preserveAspectRatio="xMidYMid meet"><g transform="translate(0.000000,300.000000) scale(0.050000,-0.050000)" fill="#bababa" stroke="none"><path d="M2897 5860c-469-314-1587-1159-1587-1200 0-38 73-100 373-318 205-150 533-389 728-532 774-567 754-595 315 447-20 47 563 20 764-35 1687-461 1769-2713 120-3278-1522-520-2955 1006-2236 2381 31 58 55 112 56 120 0 9-148 100-330 204-381 219-335 224-471-59-784-1634 478-3494 2371-3494 2247 0 3441 2541 1935 4117-515 540-1095 786-1939 825l-274 12 159 380c201 484 204 555 16 430z"/></g></svg>