<svg version="1.1" xmlns="http://www.w3.org/2000/svg" width="60" height="60" viewBox="0 0 300 300" preserveAspectRatio="xMidYMid meet"><g transform="translate(0.000000,300.000000) scale(0.050000,-0.050000)" fill="#999999" stroke="none"><path d="M285 5939c-232-116-336-350-255-578 46-130-54-28 1480-1511 319-308 648-625 730-705l150-146-170-164c-2308-2226-2146-2064-2187-2185-136-399 253-759 656-609 94 35 165 95 475 395 201 195 649 629 996 965 346 336 857 830 1135 1098 278 268 505 493 505 500 0 14-90 103-980 960-324 313-747 723-940 911-1271 1241-1263 1235-1595 1069zM2534 5971c-294-105-425-421-285-688 30-57 326-351 1251-1243 325-313 698-675 830-804l240-236-250-246c-137-135-511-497-830-804-1327-1278-1296-1243-1296-1460 0-256 197-460 467-485 189-17 281 39 653 398 827 795 2106 2034 2376 2301l300 296-290 286c-159 157-555 541-880 854-324 313-747 722-940 910-825 804-875 849-983 900-120 56-245 63-363 21z"/></g></svg>