<svg version="1.1" xmlns="http://www.w3.org/2000/svg" width="60" height="60" viewBox="0 0 300 300" preserveAspectRatio="xMidYMid meet"><g transform="translate(0.000000,300.000000) scale(0.050000,-0.050000)" fill="#999999" stroke="none"><path d="M2590 5969c-2496-383-3466-3385-1657-5129 1762-1699 4677-678 5036 1763 283 1928-1456 3660-3379 3366zm930-586c1417-325 2264-1829 1786-3173-571-1604-2552-2167-3844-1093-1664 1384-900 3980 1268 4311 136 20 624-7 790-45zM2338 4222c-183-182-136-267 430-789 249-229 452-424 452-433 0-9-203-204-452-433-249-229-465-441-480-471-95-184 30-396 236-396 137 0 100-28 802 617 806 740 806 626 0 1366-702 645-665 617-802 617-100 0-115-7-186-78z"/></g></svg>