<svg xmlns="http://www.w3.org/2000/svg" version="1" width="300" height="300" viewBox="0 0 300 300" preserveAspectRatio="xMidYMid meet"><g transform="translate(0.000000,300.000000) scale(0.100000,-0.100000)" fill="#bababa" stroke="none"><path d="M1003 2859c-62-39-101-139-88-225 8-56 33-93 448-663 173-239 321-445 328-457 10-20 7-29-23-71-19-26-172-237-340-468-366-504-405-562-413-619-18-117 63-236 161-236 52 0 87 38 320 350 444 594 679 932 689 991 17 98-9 142-352 612-358 490-580 779-613 797-30 16-82 11-117-11z"/></g></svg>