<svg xmlns="http://www.w3.org/2000/svg" version="1" width="300" height="300" viewBox="0 0 300 300" preserveAspectRatio="xMidYMid meet"><g transform="translate(0.000000,300.000000) scale(0.100000,-0.100000)" fill="#bababa" stroke="none"><path d="M1419 2742c-201-131-619-447-619-467 0-14 50-52 385-291 269-193 286-204 309-204 26 0 18 34-50 197-61 146-61 153 2 153 90 0 246-24 321-49 230-79 415-277 468-501 21-92 19-230-5-324-121-475-721-689-1150-412-91 59-152 116-206 192-152 213-172 460-57 687 13 27 22 54 20 61-6 15-239 146-260 146-22 0-48-43-91-151-90-225-92-479-5-697 126-317 416-558 766-638 109-24 330-29 443-10 242 42 437 140 596 300 93 93 149 172 205 289 110 231 122 520 30 747-90 220-273 420-488 532-152 79-286 113-501 127-73 5-136 12-139 15-3 2 21 66 52 141 57 137 76 205 58 205-6 0-44-22-84-48z"/></g></svg>