<svg xmlns="http://www.w3.org/2000/svg" version="1" width="300" height="300" viewBox="0 0 300 300" preserveAspectRatio="xMidYMid meet"><g transform="translate(0.000000,300.000000) scale(0.050000,-0.050000)" fill="#999999" stroke="none"><path d="M2590 5492c-871-169-1535-662-1889-1402-997-2086 1110-4294 3266-3423 1422 574 2014 2281 1243 3584-539 912-1636 1431-2620 1241zm640-453c1309-124 2183-1514 1722-2741-521-1389-2307-1800-3378-779-1432 1364-329 3708 1656 3520zM2508 4081c-23-10-65-46-95-81-114-136-65-213 432-673 184-171 335-318 335-326 0-9-175-179-389-379-424-397-457-443-405-565 72-170 241-201 396-74 200 163 853 766 923 851 157 190 129 238-465 776-539 488-597 525-732 471z"/></g></svg>